<?xml version="1.0" encoding="utf-8"?>
<!-- Generator: Adobe Illustrator 18.0.0, SVG Export Plug-In . SVG Version: 6.00 Build 0)  -->
<!DOCTYPE svg PUBLIC "-//W3C//DTD SVG 1.1//EN" "http://www.w3.org/Graphics/SVG/1.1/DTD/svg11.dtd">
<svg version="1.1" id="Calque_1" xmlns="http://www.w3.org/2000/svg" xmlns:xlink="http://www.w3.org/1999/xlink" x="0px" y="0px"
	 viewBox="0 0 329.6 101.8" enable-background="new 0 0 329.6 101.8" xml:space="preserve">
<path fill="#FFFFFF" d="M0,100V0h27v35.2c5.7-6.9,13-9.4,20.4-9.4c17.8,0,31.9,13.9,31.9,37.9c0,24.9-14.4,38.1-31.9,38.1
	c-7.4,0-14.2-2.5-20.4-9.5v7.7H0z M38.2,78c7.3,0,13.5-5.1,13.5-14.2c0-9-6.1-14.1-13.5-14.1c-3.6,0-8.7,1.8-11.2,4.9v18.6
	C29.5,76.3,34.6,78,38.2,78z"/>
<path fill="#FFFFFF" d="M81.9,100V0h27v100H81.9z"/>
<g>
	<path fill="#005AFF" d="M115.9,80.9c-9.9-17.9-3.4-40.5,14.6-50.4S171,27.1,180.8,45"/>
	<path fill="#FFA500" d="M180.8,45c9.9,17.9,3.4,40.5-14.6,50.4s-40.5,3.4-50.4-14.6"/>
</g>
<g>
	<path fill="#FFFFFF" d="M254,100l-11.8-40.5L230.5,100h-29.4l-21-72.4h27.7l9.6,39.9l12.7-39.9h24.1l12.6,39.9l9.6-39.9h27.9
		l-21,72.4H254z"/>
</g>
<g>
	<path fill="#FFFFFF" d="M291.6,85.8c1.7-5.9,8-9.5,13.9-7.8c5.9,1.7,9.4,8,7.7,13.9c-1.6,5.8-7.9,9.4-13.8,7.7
		C293.4,97.9,289.9,91.6,291.6,85.8z M298.5,71l9.3-43.4l21.7,6.2L315,75.6L298.5,71z"/>
</g>
</svg>
