<?xml version="1.0" encoding="utf-8"?>
<!-- Generator: Adobe Illustrator 18.0.0, SVG Export Plug-In . SVG Version: 6.00 Build 0)  -->
<!DOCTYPE svg PUBLIC "-//W3C//DTD SVG 1.1//EN" "http://www.w3.org/Graphics/SVG/1.1/DTD/svg11.dtd">
<svg version="1.1" id="Calque_1" xmlns="http://www.w3.org/2000/svg" xmlns:xlink="http://www.w3.org/1999/xlink" x="0px" y="0px"
	 viewBox="0 0 10.9 14.1" enable-background="new 0 0 10.9 14.1" xml:space="preserve">
<path id="path4109" fill="none" d="M3.2,0c0,0.2,0,0.4,0,0.6l0,0.1l-0.1,0c-0.2,0-0.4,0-0.6,0c0,1.9,0,3.8,0,5.6v0.1l-0.1,0
	c-0.2,0-0.3,0-0.5,0l-0.1,0l0-0.1c0-0.2,0-0.4,0-0.6c-0.6,0-1.3,0-1.9,0C0,6.4,0,7,0,7.7c0.2,0,0.4,0,0.6,0l0.1,0l0,0.1
	c0,0.2,0,0.4,0,0.6c0.2,0,0.4,0,0.5,0h0.1l0,0.1c0,0.4,0,0.8,0,1.2c0.2,0,0.4,0,0.6,0l0.1,0l0,0.1c0,0.4,0,0.8,0,1.2
	c0.2,0,0.4,0,0.6,0l0.1,0l0,0.1c0,0.4,0,0.8,0,1.2c0.2,0,0.4,0,0.5,0h0.1l0,0.1c0,0.6,0,1.2,0,1.8c1.1,0,2.1,0,3.2,0
	c1.1,0,2.2,0,3.2,0c0-0.6,0-1.2,0-1.8l0-0.1l0.1,0c0.2,0,0.4,0,0.5,0c0-0.6,0-1.2,0-1.8v-0.1l0.1,0c0.2,0,0.4,0,0.6,0
	c0-0.7,0-1.4,0-2v0v0c0-0.8,0-1.6,0-2.4c-0.2,0-0.4,0-0.5,0l-0.1,0l0-0.1c0-0.2,0-0.4,0-0.5c-0.2,0-0.4,0-0.6,0l-0.1,0l0-0.1
	c0-0.2,0-0.4,0-0.6c-0.4,0-0.8,0-1.2,0l-0.1,0l0-0.1c0-0.2,0-0.4,0-0.5c-0.6,0-1.2,0-1.8,0l-0.1,0l0-0.1c0-0.2,0-0.4,0-0.6
	c-0.4,0-0.8,0-1.2,0l-0.1,0l0-0.1c0-0.8,0-1.6,0-2.5c-0.1,0-0.2,0-0.3,0c-0.1,0-0.2,0-0.2,0l-0.1,0l0-0.1c0-0.2,0-0.4,0-0.6
	C4,0,3.6,0,3.2,0L3.2,0z"/>
<path id="path3016" fill="#FFFFFF" d="M3.2,0C3.6,0,4,0,4.5,0c0,0.2,0,0.4,0,0.6c-0.4,0-0.9,0-1.3,0C3.2,0.4,3.2,0.2,3.2,0z"/>
<path id="path3018" fill="#FFFFFF" d="M2.6,0.6c0.2,0,0.4,0,0.6,0c0,2.3,0,4.7,0,7c-0.2,0-0.4,0-0.6,0c0-0.2,0-0.4,0-0.6
	C2.3,7,2.1,7,1.9,7c0-0.2,0-0.4,0-0.6c0.2,0,0.4,0,0.6,0C2.6,4.5,2.5,2.6,2.6,0.6L2.6,0.6z"/>
<path id="path3020" fill="#FFFFFF" d="M4.5,0.6c0.2,0,0.4,0,0.6,0c0,0.8,0,1.7,0,2.5c0.4,0,0.8,0,1.3,0c0,0.2,0,0.4,0,0.6
	c0.6,0,1.3,0,1.9,0c0,0.2,0,0.4,0,0.6c0.4,0,0.8,0,1.3,0c0,0.2,0,0.4,0,0.6c0.2,0,0.4,0,0.6,0c0,0.2,0,0.4,0,0.6c0.2,0,0.4,0,0.6,0
	c0,0.8,0,1.6,0,2.4c0,0.7,0,1.4,0,2c-0.2,0-0.4,0-0.6,0c0,0.6,0,1.3,0,1.9c-0.2,0-0.4,0-0.6,0c0-0.6,0-1.3,0-1.9c0.2,0,0.4,0,0.6,0
	c0-1.5,0-3,0-4.5c-0.2,0-0.4,0-0.6,0c0-0.2,0-0.4,0-0.6c-0.2,0-0.4,0-0.6,0c0,0.6,0,1.3,0,1.9C8.7,7,8.5,7,8.3,7c0-0.9,0-1.7,0-2.6
	c-0.4,0-0.9,0-1.3,0c0,0.6,0,1.3,0,1.9c-0.2,0-0.4,0-0.6,0c0-0.9,0-1.7,0-2.6c-0.4,0-0.9,0-1.3,0c0,0.9,0,1.7,0,2.6
	c-0.2,0-0.4,0-0.6,0C4.5,4.5,4.5,2.6,4.5,0.6L4.5,0.6z"/>
<path id="path3026" fill="#FFFFFF" d="M0,5.7c0.6,0,1.3,0,1.9,0c0,0.2,0,0.4,0,0.6c-0.4,0-0.8,0-1.3,0c0,0.4,0,0.8,0,1.3
	c-0.2,0-0.4,0-0.6,0C0,7,0,6.4,0,5.7z"/>
<path id="path3030" fill="#FFFFFF" d="M0.7,7.7c0.2,0,0.4,0,0.6,0c0,0.2,0,0.4,0,0.6c0.2,0,0.4,0,0.6,0c0,0.4,0,0.8,0,1.3
	c0.2,0,0.4,0,0.6,0c0,0.4,0,0.9,0,1.3c-0.2,0-0.4,0-0.6,0c0-0.4,0-0.8,0-1.3c-0.2,0-0.4,0-0.6,0c0-0.4,0-0.8,0-1.3
	c-0.2,0-0.4,0-0.6,0C0.6,8.1,0.6,7.9,0.7,7.7L0.7,7.7z"/>
<path id="path3038" fill="#FFFFFF" d="M2.6,10.9c0.2,0,0.4,0,0.6,0c0,0.4,0,0.8,0,1.3c0.2,0,0.4,0,0.6,0c0,0.4,0,0.8,0,1.3
	c1.7,0,3.4,0,5.1,0c0-0.4,0-0.8,0-1.3c0.2,0,0.4,0,0.7,0c0,0.6,0,1.3,0,1.9c-1.1,0-2.2,0-3.2,0c-1.1,0-2.1,0-3.2,0
	c0-0.6,0-1.3,0-1.9c-0.2,0-0.4,0-0.6,0C2.6,11.7,2.5,11.3,2.6,10.9L2.6,10.9z"/>
</svg>
